<!-- Icon source code from https://www.iconpacks.net -->

<svg xmlns="http://www.w3.org/2000/svg" style="display: none;">
  <!-- X icon -->
  <symbol id="icon-clear" viewBox="0 0 256 256">
    <g transform="translate(1.4 1.4) scale(2.81)">
      <path d="M 11 90 c -2.815 0 -5.63 -1.074 -7.778 -3.222 c -4.295 -4.296 -4.295 -11.261 0 -15.557 l 68 -68 c 4.297 -4.296 11.26 -4.296 15.557 0 c 4.296 4.296 4.296 11.261 0 15.557 l -68 68 C 16.63 88.926 13.815 90 11 90 z" fill="currentColor"/>
      <path d="M 79 90 c -2.815 0 -5.63 -1.074 -7.778 -3.222 l -68 -68 c -4.295 -4.296 -4.295 -11.261 0 -15.557 c 4.296 -4.296 11.261 -4.296 15.557 0 l 68 68 c 4.296 4.296 4.296 11.261 0 15.557 C 84.63 88.926 81.815 90 79 90 z" fill="currentColor"/>
    </g>
  </symbol>
  <!-- Settings icon -->
  <symbol id="icon-settings" viewBox="0 0 256 256">
    <g fill="currentColor" transform="translate(1.4065934065934016 1.4065934065934016) scale(2.81 2.81)">
      <path d="M 34.268 90 c -0.669 0 -1.338 -0.132 -1.975 -0.395 l -9.845 -4.079 c -1.274 -0.527 -2.267 -1.519 -2.795 -2.795 c -0.528 -1.274 -0.528 -2.679 0 -3.953 c 1.216 -2.936 0.075 -5.558 -1.399 -7.032 c -1.474 -1.475 -4.094 -2.615 -7.033 -1.399 c -1.273 0.529 -2.677 0.528 -3.952 0.001 c -1.275 -0.528 -2.268 -1.52 -2.795 -2.795 l -4.078 -9.844 c -1.089 -2.63 0.164 -5.657 2.794 -6.748 C 6.128 49.745 7.174 47.085 7.174 45 c 0 -2.084 -1.046 -4.745 -3.983 -5.962 c -1.274 -0.528 -2.267 -1.52 -2.795 -2.795 c -0.528 -1.274 -0.528 -2.678 0 -3.952 l 4.078 -9.844 c 1.09 -2.631 4.12 -3.883 6.747 -2.795 c 2.936 1.216 5.558 0.075 7.033 -1.399 c 1.474 -1.474 2.616 -4.095 1.399 -7.032 c -1.09 -2.631 0.164 -5.657 2.795 -6.747 l 9.844 -4.077 c 1.274 -0.528 2.678 -0.528 3.953 0 c 1.275 0.528 2.268 1.521 2.795 2.796 c 1.216 2.936 3.877 3.982 5.962 3.982 c 2.085 0 4.745 -1.046 5.962 -3.983 c 1.09 -2.631 4.115 -3.885 6.748 -2.795 l 9.845 4.077 c 1.274 0.528 2.267 1.52 2.795 2.795 c 0.527 1.274 0.527 2.679 -0.001 3.953 c -1.217 2.936 -0.074 5.557 1.399 7.031 c 1.475 1.474 4.097 2.615 7.032 1.399 c 1.277 -0.528 2.68 -0.527 3.953 0 c 1.275 0.528 2.268 1.521 2.796 2.796 l 4.077 9.843 c 1.089 2.631 -0.165 5.658 -2.795 6.747 c -2.937 1.217 -3.983 3.878 -3.983 5.962 c 0 2.085 1.046 4.745 3.983 5.962 h 0.001 c 2.629 1.091 3.883 4.117 2.795 6.747 l -4.079 9.845 c -0.527 1.273 -1.52 2.266 -2.795 2.795 c -1.273 0.528 -2.679 0.528 -3.954 -0.001 c -2.934 -1.217 -5.557 -0.074 -7.031 1.399 c -1.474 1.475 -2.615 4.096 -1.399 7.032 c 0.528 1.274 0.528 2.678 0.001 3.953 c -0.528 1.275 -1.521 2.267 -2.796 2.796 l -9.844 4.077 c -2.63 1.09 -5.657 -0.166 -6.748 -2.794 c -1.217 -2.938 -3.877 -3.985 -5.962 -3.985 c -2.084 0 -4.746 1.047 -5.962 3.984 c -0.527 1.273 -1.52 2.266 -2.794 2.795 C 35.607 89.868 34.937 90 34.268 90 z M 25.491 80.293 l 8.349 3.459 c 2.105 -4.294 6.31 -6.926 11.161 -6.926 c 0 0 0 0 0 0 c 4.852 0 9.056 2.633 11.16 6.926 l 8.348 -3.459 c -1.547 -4.524 -0.435 -9.358 2.996 -12.788 c 3.431 -3.431 8.265 -4.544 12.789 -2.996 l 3.459 -8.348 c -4.294 -2.104 -6.926 -6.309 -6.926 -11.16 c 0 -4.852 2.632 -9.057 6.926 -11.162 l -3.459 -8.349 c -4.523 1.549 -9.359 0.435 -12.789 -2.994 c -3.432 -3.431 -4.543 -8.265 -2.996 -12.789 l -8.348 -3.458 c -2.103 4.293 -6.308 6.925 -11.16 6.925 c -4.852 0 -9.057 -2.632 -11.162 -6.925 l -8.349 3.458 c 1.548 4.524 0.436 9.358 -2.995 12.789 c -3.431 3.431 -8.264 4.544 -12.789 2.994 l -3.458 8.349 c 4.294 2.105 6.926 6.31 6.926 11.162 c 0 4.852 -2.632 9.056 -6.926 11.16 l 3.458 8.348 c 4.525 -1.547 9.359 -0.435 12.789 2.995 C 25.927 70.935 27.039 75.769 25.491 80.293 z M 84.511 56.503 c 0.001 0 0.002 0 0.003 0.001 C 84.513 56.503 84.512 56.503 84.511 56.503 z M 45.001 65.781 C 33.543 65.781 24.22 56.459 24.22 45 c 0 -11.459 9.323 -20.781 20.781 -20.781 S 65.783 33.541 65.783 45 C 65.783 56.459 56.46 65.781 45.001 65.781 z M 45.001 30.218 C 36.851 30.218 30.22 36.85 30.22 45 c 0 8.151 6.631 14.782 14.781 14.782 c 8.151 0 14.782 -6.631 14.782 -14.782 C 59.783 36.85 53.153 30.218 45.001 30.218 z" fill="currentColor" transform=" matrix(1 0 0 1 0 0) " stroke-linecap="round"/>
    </g>
  </symbol>
  <!-- Fullscreen field icon -->
  <symbol id="icon-fit" viewBox="0 0 256 256">
    <g fill="currentColor" transform="translate(1.4065934065934016 1.4065934065934016) scale(2.81 2.81)">
      <path d="M 27.194 90 H 1.5 C 0.671 90 0 89.328 0 88.5 V 62.806 c 0 -0.828 0.671 -1.5 1.5 -1.5 s 1.5 0.672 1.5 1.5 V 87 h 24.194 c 0.829 0 1.5 0.672 1.5 1.5 S 28.023 90 27.194 90 z" fill="currentColor" transform=" matrix(1 0 0 1 0 0) " stroke-linecap="round"/>
      <path d="M 1.5 90 c -0.384 0 -0.768 -0.146 -1.061 -0.439 c -0.586 -0.586 -0.586 -1.535 0 -2.121 l 87 -87 c 0.586 -0.586 1.535 -0.586 2.121 0 c 0.586 0.585 0.586 1.536 0 2.121 l -87 87 C 2.268 89.854 1.884 90 1.5 90 z" fill="currentColor" transform=" matrix(1 0 0 1 0 0) " stroke-linecap="round"/>
      <path d="M 88.5 28.694 c -0.828 0 -1.5 -0.671 -1.5 -1.5 V 3 H 62.806 c -0.828 0 -1.5 -0.671 -1.5 -1.5 s 0.672 -1.5 1.5 -1.5 H 88.5 C 89.328 0 90 0.671 90 1.5 v 25.694 C 90 28.023 89.328 28.694 88.5 28.694 z" fill="currentColor" transform=" matrix(1 0 0 1 0 0) " stroke-linecap="round"/>
    </g>
  </symbol>
  <!-- Help icon -->
  <symbol id="icon-help" viewBox="0 0 256 256">
  <g fill="currentColor" transform="translate(1.4065934065934016 1.4065934065934016) scale(2.81 2.81)">
    <path d="M 45 61.898 c -1.657 0 -3 -1.344 -3 -3 v -6.612 c 0 -0.825 0.34 -1.614 0.94 -2.182 l 9.553 -9.019 c 1.873 -1.946 2.903 -4.502 2.903 -7.206 v -0.357 c 0 -2.827 -1.115 -5.471 -3.141 -7.445 c -2.025 -1.974 -4.693 -3.031 -7.532 -2.947 c -5.58 0.144 -10.12 4.941 -10.12 10.694 c 0 1.657 -1.343 3 -3 3 s -3 -1.343 -3 -3 c 0 -8.978 7.162 -16.465 15.965 -16.692 c 4.467 -0.122 8.68 1.536 11.874 4.648 c 3.194 3.113 4.953 7.283 4.953 11.742 v 0.357 c 0 4.295 -1.649 8.356 -4.646 11.434 c -0.029 0.03 -0.06 0.06 -0.09 0.089 L 48 53.579 v 5.319 C 48 60.555 46.657 61.898 45 61.898 z" fill="currentColor" transform=" matrix(1 0 0 1 0 0) " stroke-linecap="round"/>
    <path d="M 45 73.87 c -0.26 0 -0.52 -0.021 -0.78 -0.07 c -0.26 -0.06 -0.51 -0.13 -0.75 -0.23 c -0.24 -0.1 -0.47 -0.229 -0.69 -0.369 c -0.22 -0.15 -0.42 -0.311 -0.61 -0.5 C 41.43 71.96 41 70.93 41 69.87 c 0 -0.261 0.03 -0.521 0.08 -0.78 c 0.05 -0.25 0.13 -0.51 0.23 -0.75 s 0.22 -0.47 0.36 -0.69 c 0.15 -0.22 0.32 -0.42 0.5 -0.609 c 0.19 -0.181 0.39 -0.351 0.61 -0.49 c 0.22 -0.15 0.45 -0.27 0.69 -0.37 c 0.24 -0.1 0.49 -0.18 0.75 -0.229 c 0.51 -0.101 1.05 -0.101 1.56 0 c 0.26 0.05 0.51 0.13 0.75 0.229 c 0.239 0.101 0.47 0.22 0.689 0.37 c 0.22 0.14 0.42 0.31 0.61 0.49 c 0.18 0.189 0.35 0.39 0.5 0.609 c 0.14 0.221 0.26 0.45 0.359 0.69 c 0.101 0.24 0.181 0.5 0.23 0.75 c 0.05 0.26 0.08 0.52 0.08 0.78 c 0 1.06 -0.431 2.09 -1.17 2.83 C 47.08 73.45 46.05 73.87 45 73.87 z" fill="currentColor" transform=" matrix(1 0 0 1 0 0) " stroke-linecap="round"/>
  </g>
  </symbol>
  <!--  File import icon -->
  <symbol id="icon-fileOpen" viewBox="0 0 256 256">
    <g fill="currentColor" transform="translate(1.4065934065934016 1.4065934065934016) scale(2.81 2.81)">
      <path d="M 63.089 1.483 H 15.755 c -1.551 0 -2.808 1.257 -2.808 2.808 v 81.418 c 0 1.551 1.257 2.808 2.808 2.808 h 58.49 c 1.551 0 2.808 -1.257 2.808 -2.808 V 14.927 L 63.089 1.483 z M 65.896 14.927 c -1.551 0 -2.808 -1.257 -2.808 -2.808 V 1.483 l 13.964 13.444 H 65.896 z" fill="currentColor" transform=" matrix(1 0 0 1 0 0) " stroke-linecap="round"/>
      <path d="M 75.569 83.678 v 2.031 c 0 0.729 -0.594 1.323 -1.324 1.323 h -58.49 c -0.73 0 -1.324 -0.594 -1.324 -1.323 V 4.291 c 0 -0.73 0.594 -1.324 1.324 -1.324 h 45.851 v 9.153 c 0 2.366 1.925 4.291 4.29 4.291 h 9.673 V 83.678 c 1.021 0.094 1.601 1.553 2.967 -0.566 V 14.94 c 0.001 -0.084 -0.006 -0.166 -0.018 -0.248 c 0 0 -0.001 0 -0.001 -0.001 c 0 -0.001 0 -0.001 0 -0.003 v 0 c 0 -0.001 -0.001 -0.002 -0.001 -0.003 c -0.007 -0.042 -0.015 -0.082 -0.026 -0.123 v 0 c -0.001 -0.001 0.002 -0.003 -0.001 -0.003 c 0 -0.002 0 -0.003 -0.001 -0.004 v 0 c -0.066 -0.253 -0.199 -0.489 -0.392 -0.68 l -0.001 0 c 0 0 -0.001 -0.001 -0.001 -0.001 c -0.007 -0.001 -0.002 -0.001 -0.003 -0.002 c 0.003 -0.005 -0.002 -0.002 -0.002 -0.002 c -0.002 -0.001 0.001 -0.001 -0.003 -0.002 c 0.001 -0.001 -0.002 -0.001 -0.002 -0.002 c -0.001 -0.001 -0.002 -0.001 -0.003 -0.002 L 64.118 0.415 c -0.001 -0.001 -0.002 -0.002 -0.003 -0.003 c -0.001 -0.001 -0.002 -0.002 -0.003 -0.003 c -0.201 -0.19 -0.444 -0.317 -0.703 -0.374 c -0.038 -0.008 -0.075 -0.015 -0.113 -0.02 c -0.001 0 -0.001 0 -0.001 0 c -0.002 -0.001 -0.003 0 -0.005 -0.001 c -0.002 0 -0.004 -0.001 -0.004 0 c -0.001 0 -0.003 0 -0.005 0 c -0.002 0 -0.003 -0.001 -0.005 0 c 0 0 -0.001 0 -0.005 -0.001 C 63.207 0.003 63.131 0.003 63.079 0 H 15.755 c -2.366 0 -4.291 1.925 -4.291 4.291 V 85.71 c 0 2.365 1.925 4.29 4.291 4.29 h 58.49 c 2.366 0 4.291 -1.925 4.291 -4.29 v -2.598 C 77.58 83.39 76.59 83.584 75.569 83.678 z M 64.573 4.971 l 8.8 8.473 h -7.477 c -0.729 0 -1.323 -0.594 -1.323 -1.324 V 4.971 z" style="stroke: none; stroke-width: 1; stroke-dasharray: none; stroke-linecap: butt; stroke-linejoin: miter; stroke-miterlimit: 10; fill: rgb(0,0,0); fill-rule: nonzero; opacity: 1;" transform=" matrix(1 0 0 1 0 0) " stroke-linecap="round"/>
      <path d="M 21.924 66.401 c -0.82 0 -1.484 0.664 -1.484 1.484 s 0.664 1.484 1.484 1.484 h 22.668 c 0.819 0 1.484 -0.664 1.484 -1.484 s -0.664 -1.484 -1.484 -1.484 H 21.924 z" style="stroke: none; stroke-width: 1; stroke-dasharray: none; stroke-linecap: butt; stroke-linejoin: miter; stroke-miterlimit: 10; fill: rgb(0,0,0); fill-rule: nonzero; opacity: 1;" transform=" matrix(1 0 0 1 0 0) " stroke-linecap="round"/>
      <path d="M 21.924 39.698 h 47.294 c 0.819 0 1.484 -0.664 1.484 -1.484 s -0.664 -1.484 -1.484 -1.484 H 21.924 c -0.82 0 -1.484 0.664 -1.484 1.484 S 21.105 39.698 21.924 39.698 z" style="stroke: none; stroke-width: 1; stroke-dasharray: none; stroke-linecap: butt; stroke-linejoin: miter; stroke-miterlimit: 10; fill: rgb(0,0,0); fill-rule: nonzero; opacity: 1;" transform=" matrix(1 0 0 1 0 0) " stroke-linecap="round"/>
      <path d="M 70.702 57.995 c 0 -0.819 -0.664 -1.484 -1.484 -1.484 H 21.924 c -0.82 0 -1.484 0.664 -1.484 1.484 s 0.664 1.484 1.484 1.484 h 47.294 C 70.038 59.478 70.702 58.814 70.702 57.995 z" style="stroke: none; stroke-width: 1; stroke-dasharray: none; stroke-linecap: butt; stroke-linejoin: miter; stroke-miterlimit: 10; fill: rgb(0,0,0); fill-rule: nonzero; opacity: 1;" transform=" matrix(1 0 0 1 0 0) " stroke-linecap="round"/>
      <path d="M 21.924 29.808 h 22.668 c 0.819 0 1.484 -0.664 1.484 -1.484 c 0 -0.82 -0.664 -1.484 -1.484 -1.484 H 21.924 c -0.82 0 -1.484 0.664 -1.484 1.484 C 20.441 29.144 21.105 29.808 21.924 29.808 z" style="stroke: none; stroke-width: 1; stroke-dasharray: none; stroke-linecap: butt; stroke-linejoin: miter; stroke-miterlimit: 10; fill: rgb(0,0,0); fill-rule: nonzero; opacity: 1;" transform=" matrix(1 0 0 1 0 0) " stroke-linecap="round"/>
      <path d="M 21.924 49.588 h 47.294 c 0.819 0 1.484 -0.664 1.484 -1.484 c 0 -0.819 -0.664 -1.484 -1.484 -1.484 H 21.924 c -0.82 0 -1.484 0.664 -1.484 1.484 C 20.441 48.924 21.105 49.588 21.924 49.588 z" style="stroke: none; stroke-width: 1; stroke-dasharray: none; stroke-linecap: butt; stroke-linejoin: miter; stroke-miterlimit: 10; fill: rgb(0,0,0); fill-rule: nonzero; opacity: 1;" transform=" matrix(1 0 0 1 0 0) " stroke-linecap="round"/>
    </g>
  </symbol>
  <!-- Planned path overlay toggle -->
  <symbol id="icon-planOverlay" viewBox="0 0 256 256">
    <g fill="currentColor" transform="translate(1.4065934065934016 1.4065934065934016) scale(2.81 2.81)">
      <path d="M 89.785 86.665 l -43 -85.133 c -0.005 -0.011 -0.013 -0.019 -0.018 -0.03 c -0.028 -0.054 -0.062 -0.104 -0.095 -0.155 c -0.028 -0.044 -0.055 -0.089 -0.086 -0.13 c -0.033 -0.043 -0.071 -0.082 -0.108 -0.122 c -0.038 -0.042 -0.074 -0.085 -0.115 -0.123 c -0.039 -0.036 -0.082 -0.067 -0.124 -0.1 c -0.044 -0.035 -0.087 -0.072 -0.134 -0.103 c -0.045 -0.03 -0.094 -0.054 -0.141 -0.08 c -0.049 -0.027 -0.097 -0.056 -0.148 -0.079 c -0.048 -0.021 -0.099 -0.037 -0.149 -0.055 c -0.056 -0.02 -0.111 -0.041 -0.168 -0.056 c -0.012 -0.003 -0.023 -0.009 -0.035 -0.012 c -0.04 -0.009 -0.079 -0.011 -0.119 -0.018 c -0.06 -0.01 -0.119 -0.022 -0.18 -0.027 c -0.053 -0.004 -0.104 -0.003 -0.157 -0.003 c -0.06 0 -0.119 -0.001 -0.179 0.004 c -0.054 0.005 -0.106 0.015 -0.159 0.024 c -0.045 0.008 -0.09 0.009 -0.135 0.02 c -0.014 0.003 -0.026 0.01 -0.04 0.013 c -0.049 0.013 -0.096 0.031 -0.145 0.048 c -0.058 0.02 -0.117 0.038 -0.173 0.063 c -0.042 0.019 -0.08 0.043 -0.12 0.064 c -0.057 0.031 -0.115 0.06 -0.169 0.096 c -0.038 0.025 -0.073 0.056 -0.109 0.084 c -0.05 0.039 -0.101 0.076 -0.147 0.119 c -0.036 0.033 -0.067 0.071 -0.1 0.107 c -0.041 0.045 -0.084 0.089 -0.121 0.137 c -0.029 0.039 -0.054 0.081 -0.081 0.122 c -0.035 0.053 -0.07 0.105 -0.099 0.161 c -0.005 0.01 -0.013 0.019 -0.018 0.03 l -43 85.133 c -0.384 0.76 -0.245 1.68 0.348 2.292 C 0.948 89.355 1.47 89.566 2 89.566 c 0.285 0 0.571 -0.061 0.841 -0.186 L 45 69.83 l 42.158 19.551 c 0.27 0.125 0.557 0.186 0.841 0.186 c 0.531 0 1.054 -0.211 1.438 -0.609 C 90.029 88.345 90.169 87.425 89.785 86.665 z M 43 10.83 v 55.518 L 6.38 83.33 L 43 10.83 z" fill="currentColor" transform=" matrix(1 0 0 1 0 0) " stroke-linecap="round"/>
    </g>
  <symbol>
  <symbol id="icon-floatingWin" viewBox="0 0 256 256">
    <g fill="currentColor" transform="translate(1.4065934065934016 1.4065934065934016) scale(2.81 2.81)">
      <path d="M 27.429 72.429 c -2.209 0 -4 -1.791 -4 -4 v -11.8 c 0 -2.209 1.791 -4 4 -4 s 4 1.791 4 4 v 11.8 C 31.429 70.638 29.638 72.429 27.429 72.429 z" fill="currentColor" transform=" matrix(1 0 0 1 0 0) " stroke-linecap="round"/>
      <path d="M 45 72.429 c -2.209 0 -4 -1.791 -4 -4 V 45 c 0 -2.209 1.791 -4 4 -4 s 4 1.791 4 4 v 23.429 C 49 70.638 47.209 72.429 45 72.429 z" fill="currentColor" transform=" matrix(1 0 0 1 0 0) " stroke-linecap="round"/>
      <path d="M 62.571 72.429 c -2.209 0 -4 -1.791 -4 -4 V 21.571 c 0 -2.209 1.791 -4 4 -4 s 4 1.791 4 4 v 46.857 C 66.571 70.638 64.78 72.429 62.571 72.429 z" fill="currentColor" transform=" matrix(1 0 0 1 0 0) " stroke-linecap="round"/>
      <path d="M 77.403 90 H 12.597 C 5.651 90 0 84.35 0 77.403 V 12.597 C 0 5.651 5.651 0 12.597 0 h 64.807 C 84.35 0 90 5.651 90 12.597 v 64.807 C 90 84.35 84.35 90 77.403 90 z M 12.597 8 C 10.062 8 8 10.062 8 12.597 v 64.807 C 8 79.938 10.062 82 12.597 82 h 64.807 C 79.938 82 82 79.938 82 77.403 V 12.597 C 82 10.062 79.938 8 77.403 8 H 12.597 z" fill="currentColor" transform=" matrix(1 0 0 1 0 0) " stroke-linecap="round"/>
    </g>
  <symbol>
  <symbol id="icon-stgRobot" viewBox="0 0 256 256">
    <g style="stroke: none; stroke-width: 0; stroke-dasharray: none; stroke-linecap: butt; stroke-linejoin: miter; stroke-miterlimit: 10; fill: none; fill-rule: nonzero; opacity: 1;" transform="translate(1.4065934065934016 -3.4372388175204946) scale(2.81 2.81)">
      <path d="M 77.98 70.01 V 40.183 c 0 -4.415 -3.579 -7.994 -7.994 -7.994 H 20.013 c -4.415 0 -7.994 3.579 -7.994 7.994 V 70.01 c 0 4.415 3.579 7.994 7.994 7.994 h 49.973 C 74.401 78.004 77.98 74.425 77.98 70.01 z" style="stroke: none; stroke-width: 1; stroke-dasharray: none; stroke-linecap: butt; stroke-linejoin: miter; stroke-miterlimit: 10; fill: rgba(137, 191, 191, 1); fill-rule: nonzero; opacity: 1;" transform=" matrix(1 0 0 1 0 0) " stroke-linecap="round"/>
      <path d="M 7.311 45.008 h 4.709 v 21.66 H 7.311 C 3.825 66.668 1 63.843 1 60.357 v -9.039 C 1 47.833 3.825 45.008 7.311 45.008 z" style="stroke: none; stroke-width: 1; stroke-dasharray: none; stroke-linecap: butt; stroke-linejoin: miter; stroke-miterlimit: 10; fill: rgb(181,193,193); fill-rule: nonzero; opacity: 1;" transform=" matrix(1 0 0 1 0 0) " stroke-linecap="round"/>
      <path d="M 77.98 45.008 h 4.709 c 3.485 0 6.311 2.825 6.311 6.311 v 9.039 c 0 3.485 -2.825 6.311 -6.311 6.311 H 77.98 V 45.008 z" style="stroke: none; stroke-width: 1; stroke-dasharray: none; stroke-linecap: butt; stroke-linejoin: miter; stroke-miterlimit: 10; fill: rgb(181,193,193); fill-rule: nonzero; opacity: 1;" transform=" matrix(1 0 0 1 0 0) " stroke-linecap="round"/>
      <polygon points="47.63,21.98 48.81,32.19 41.19,32.19 42.37,21.98 " style="stroke: none; stroke-width: 1; stroke-dasharray: none; stroke-linecap: butt; stroke-linejoin: miter; stroke-miterlimit: 10; fill: rgb(181,193,193); fill-rule: nonzero; opacity: 1;" transform="  matrix(1 0 0 1 0 0) "/>
      <circle cx="44.998" cy="17.338" r="5.338" style="stroke: none; stroke-width: 1; stroke-dasharray: none; stroke-linecap: butt; stroke-linejoin: miter; stroke-miterlimit: 10; fill: rgb(181,193,193); fill-rule: nonzero; opacity: 1;" transform="  matrix(1 0 0 1 0 0) "/>
      <circle cx="33.379999999999995" cy="49.98" r="4" style="stroke: none; stroke-width: 1; stroke-dasharray: none; stroke-linecap: butt; stroke-linejoin: miter; stroke-miterlimit: 10; fill: rgb(146,244,239); fill-rule: nonzero; opacity: 1;" transform="  matrix(1 0 0 1 0 0) "/>
      <circle cx="56.63" cy="49.98" r="4" style="stroke: none; stroke-width: 1; stroke-dasharray: none; stroke-linecap: butt; stroke-linejoin: miter; stroke-miterlimit: 10; fill: rgb(146,244,239); fill-rule: nonzero; opacity: 1;" transform="  matrix(1 0 0 1 0 0) "/>
      <path d="M 69.986 79.004 H 20.013 c -4.959 0 -8.994 -4.034 -8.994 -8.993 V 40.183 c 0 -4.959 4.035 -8.994 8.994 -8.994 h 49.973 c 4.959 0 8.994 4.035 8.994 8.994 v 29.828 C 78.98 74.97 74.945 79.004 69.986 79.004 z M 20.013 33.189 c -3.856 0 -6.994 3.137 -6.994 6.994 v 29.828 c 0 3.856 3.137 6.993 6.994 6.993 h 49.973 c 3.856 0 6.994 -3.137 6.994 -6.993 V 40.183 c 0 -3.856 -3.138 -6.994 -6.994 -6.994 H 20.013 z" style="stroke: none; stroke-width: 1; stroke-dasharray: none; stroke-linecap: butt; stroke-linejoin: miter; stroke-miterlimit: 10; fill: rgb(0,0,0); fill-rule: nonzero; opacity: 1;" transform=" matrix(1 0 0 1 0 0) " stroke-linecap="round"/>
      <path d="M 33.375 54.977 c -2.757 0 -5 -2.243 -5 -5 s 2.243 -5 5 -5 s 5 2.243 5 5 S 36.132 54.977 33.375 54.977 z M 33.375 46.977 c -1.654 0 -3 1.346 -3 3 s 1.346 3 3 3 s 3 -1.346 3 -3 S 35.029 46.977 33.375 46.977 z" style="stroke: none; stroke-width: 1; stroke-dasharray: none; stroke-linecap: butt; stroke-linejoin: miter; stroke-miterlimit: 10; fill: rgb(0,0,0); fill-rule: nonzero; opacity: 1;" transform=" matrix(1 0 0 1 0 0) " stroke-linecap="round"/>
      <path d="M 56.625 54.977 c -2.757 0 -5 -2.243 -5 -5 s 2.243 -5 5 -5 s 5 2.243 5 5 S 59.382 54.977 56.625 54.977 z M 56.625 46.977 c -1.654 0 -3 1.346 -3 3 s 1.346 3 3 3 s 3 -1.346 3 -3 S 58.279 46.977 56.625 46.977 z" style="stroke: none; stroke-width: 1; stroke-dasharray: none; stroke-linecap: butt; stroke-linejoin: miter; stroke-miterlimit: 10; fill: rgb(0,0,0); fill-rule: nonzero; opacity: 1;" transform=" matrix(1 0 0 1 0 0) " stroke-linecap="round"/>
      <path d="M 56.625 68.912 h -23.25 c -0.552 0 -1 -0.447 -1 -1 s 0.448 -1 1 -1 h 23.25 c 0.553 0 1 0.447 1 1 S 57.178 68.912 56.625 68.912 z" style="stroke: none; stroke-width: 1; stroke-dasharray: none; stroke-linecap: butt; stroke-linejoin: miter; stroke-miterlimit: 10; fill: rgb(0,0,0); fill-rule: nonzero; opacity: 1;" transform=" matrix(1 0 0 1 0 0) " stroke-linecap="round"/>
      <path d="M 12.02 67.668 H 7.311 C 3.28 67.668 0 64.389 0 60.357 v -9.039 c 0 -4.031 3.28 -7.311 7.311 -7.311 h 4.708 c 0.552 0 1 0.448 1 1 v 21.66 C 13.02 67.221 12.572 67.668 12.02 67.668 z M 7.311 46.008 C 4.382 46.008 2 48.39 2 51.318 v 9.039 c 0 2.929 2.382 5.311 5.311 5.311 h 3.708 v -19.66 H 7.311 z" style="stroke: none; stroke-width: 1; stroke-dasharray: none; stroke-linecap: butt; stroke-linejoin: miter; stroke-miterlimit: 10; fill: rgb(0,0,0); fill-rule: nonzero; opacity: 1;" transform=" matrix(1 0 0 1 0 0) " stroke-linecap="round"/>
      <path d="M 82.689 67.668 H 77.98 c -0.553 0 -1 -0.447 -1 -1 v -21.66 c 0 -0.552 0.447 -1 1 -1 h 4.709 c 4.031 0 7.311 3.279 7.311 7.311 v 9.039 C 90 64.389 86.721 67.668 82.689 67.668 z M 78.98 65.668 h 3.709 c 2.929 0 5.311 -2.382 5.311 -5.311 v -9.039 c 0 -2.929 -2.382 -5.311 -5.311 -5.311 H 78.98 V 65.668 z" style="stroke: none; stroke-width: 1; stroke-dasharray: none; stroke-linecap: butt; stroke-linejoin: miter; stroke-miterlimit: 10; fill: rgb(0,0,0); fill-rule: nonzero; opacity: 1;" transform=" matrix(1 0 0 1 0 0) " stroke-linecap="round"/>
      <path d="M 48.812 33.189 h -7.623 c -0.285 0 -0.557 -0.122 -0.747 -0.335 c -0.19 -0.213 -0.28 -0.497 -0.247 -0.78 l 1.182 -10.213 c 0.063 -0.549 0.565 -0.943 1.108 -0.878 c 0.549 0.063 0.942 0.56 0.878 1.108 l -1.052 9.098 h 5.378 l -1.053 -9.096 c -0.063 -0.548 0.329 -1.044 0.878 -1.108 c 0.554 -0.064 1.046 0.33 1.108 0.878 l 1.182 10.21 c 0.033 0.283 -0.057 0.567 -0.246 0.78 C 49.368 33.068 49.097 33.189 48.812 33.189 z" style="stroke: none; stroke-width: 1; stroke-dasharray: none; stroke-linecap: butt; stroke-linejoin: miter; stroke-miterlimit: 10; fill: rgb(0,0,0); fill-rule: nonzero; opacity: 1;" transform=" matrix(1 0 0 1 0 0) " stroke-linecap="round"/>
      <path d="M 45 23.672 c -3.495 0 -6.338 -2.843 -6.338 -6.338 c 0 -3.495 2.843 -6.338 6.338 -6.338 s 6.338 2.843 6.338 6.338 C 51.338 20.829 48.495 23.672 45 23.672 z M 45 12.996 c -2.392 0 -4.338 1.946 -4.338 4.338 s 1.946 4.338 4.338 4.338 c 2.392 0 4.338 -1.946 4.338 -4.338 S 47.392 12.996 45 12.996 z" style="stroke: none; stroke-width: 1; stroke-dasharray: none; stroke-linecap: butt; stroke-linejoin: miter; stroke-miterlimit: 10; fill: rgb(0,0,0); fill-rule: nonzero; opacity: 1;" transform=" matrix(1 0 0 1 0 0) " stroke-linecap="round"/>
    </g>
  <symbol>
  <symbol id="icon-stgProsDir" viewBox="0 0 256 256">
    <g style="stroke: none; stroke-width: 0; stroke-dasharray: none; stroke-linecap: butt; stroke-linejoin: miter; stroke-miterlimit: 10; fill: none; fill-rule: nonzero; opacity: 1;" transform="translate(1.4065934065934016 1.4065934065934016) scale(2.81 2.81)">
      <path d="M 86.351 17.027 H 35.525 c -1.909 0 -3.706 -0.903 -4.846 -2.435 l -2.457 -3.302 c -0.812 -1.092 -2.093 -1.735 -3.454 -1.735 H 3.649 C 1.634 9.556 0 11.19 0 13.205 V 29.11 c 0 -2.015 1.634 -1.649 3.649 -1.649 h 82.703 c 2.015 0 3.649 -0.366 3.649 1.649 v -8.435 C 90 18.661 88.366 17.027 86.351 17.027 z" style="stroke: none; stroke-width: 1; stroke-dasharray: none; stroke-linecap: butt; stroke-linejoin: miter; stroke-miterlimit: 10; fill: rgba(111, 111, 111, 1); fill-rule: nonzero; opacity: 1;" transform=" matrix(1 0 0 1 0 0) " stroke-linecap="round"/>
      <path d="M 86.351 80.444 H 3.649 C 1.634 80.444 0 78.81 0 76.795 V 29.11 c 0 -2.015 1.634 -3.649 3.649 -3.649 h 82.703 c 2.015 0 3.649 1.634 3.649 3.649 v 47.685 C 90 78.81 88.366 80.444 86.351 80.444 z" style="stroke: none; stroke-width: 1; stroke-dasharray: none; stroke-linecap: butt; stroke-linejoin: miter; stroke-miterlimit: 10; fill: rgba(86, 86, 86, 1); fill-rule: nonzero; opacity: 1;" transform=" matrix(1 0 0 1 0 0) " stroke-linecap="round"/>
      <path d="M 85.106 76.854 H 4.894 c -0.276 0 -0.5 -0.224 -0.5 -0.5 s 0.224 -0.5 0.5 -0.5 h 80.213 c 0.276 0 0.5 0.224 0.5 0.5 S 85.383 76.854 85.106 76.854 z" style="stroke: none; stroke-width: 1; stroke-dasharray: none; stroke-linecap: butt; stroke-linejoin: miter; stroke-miterlimit: 10; fill: rgba(111, 111, 111, 1); fill-rule: nonzero; opacity: 1;" transform=" matrix(1 0 0 1 0 0) " stroke-linecap="round"/>
      <path d="M 85.106 72.762 H 4.894 c -0.276 0 -0.5 -0.224 -0.5 -0.5 s 0.224 -0.5 0.5 -0.5 h 80.213 c 0.276 0 0.5 0.224 0.5 0.5 S 85.383 72.762 85.106 72.762 z" style="stroke: none; stroke-width: 1; stroke-dasharray: none; stroke-linecap: butt; stroke-linejoin: miter; stroke-miterlimit: 10; fill: rgba(111, 111, 111, 1); fill-rule: nonzero; opacity: 1;" transform=" matrix(1 0 0 1 0 0) " stroke-linecap="round"/>
    </g>
  <symbol>


</svg>  
